<?xml version="1.0"?>
<svg xmlns="http://www.w3.org/2000/svg" version="1" viewBox="0 0 24 24" enable-background="new 0 0 24 24">
    <path d="M 9 2 C 5.6 2 3 6.4 3 12 C 3 17.6 5.6 22 9 22 L 10 22 L 10.5 22 C 9.5895465 21.853153 8.7466281 21.37553 8 20.65625 C 7.8136177 20.476695 7.6415697 20.272598 7.46875 20.0625 L 8 20.65625 L 8.5 20.1875 C 9.4741323 21.329153 10.678413 22 12 22 L 13 22 L 13.5 22 C 12.228702 21.794952 11.07485 20.957751 10.15625 19.6875 L 11.65625 20.28125 C 12.614258 21.362305 13.7625 22 15 22 C 18.3 22 21 17.5 21 12 C 21 6.5 18.3 2 15 2 C 13.47919 2 12.091656 2.9623635 11.03125 4.53125 L 10.46875 3.9375 C 11.333867 2.8857713 12.362268 2.1835052 13.5 2 L 13 2 L 12 2 C 10.945388 2 9.9719564 2.4363344 9.125 3.1875 C 9.1079994 3.2025778 9.0793949 3.2034088 9.0625 3.21875 L 7.59375 3.75 C 8.429317 2.795752 9.4253866 2.1733247 10.5 2 L 10 2 L 9 2 z M 15 5 C 16.1 5 18 7.7 18 12 C 18 16.3 16.1 19 15 19 C 13.9 19 12 16.3 12 12 C 12 7.7 13.9 5 15 5 z M 9.59375 5.1875 L 10.25 5.90625 C 9.9954652 6.4547938 9.7764748 7.0579034 9.59375 7.6875 L 8.8125 7.03125 C 9.038597 6.3710982 9.28589 5.7408686 9.59375 5.1875 z M 7.4375 5.4375 C 7.2662691 5.7709584 7.1121764 6.1291273 6.96875 6.5 L 5.75 7.1875 C 5.9030518 6.721179 6.0868766 6.2914365 6.28125 5.875 L 7.4375 5.4375 z M 6.34375 8.5625 C 6.1976004 9.2542598 6.1166534 9.9925477 6.0625 10.75 L 5.03125 11.4375 C 5.0572658 10.648831 5.1229713 9.8813351 5.25 9.15625 L 6.34375 8.5625 z M 8.375 8.59375 L 9.25 9.3125 C 9.1342551 9.9975889 9.0558605 10.702694 9.03125 11.4375 L 8.03125 10.8125 C 8.0853 10.038963 8.2230551 9.2989142 8.375 8.59375 z M 6.03125 12.5625 C 6.0546185 13.297547 6.1094341 14.006554 6.21875 14.6875 L 5.375 15.40625 C 5.2230551 14.701086 5.0853 13.961037 5.03125 13.1875 L 6.03125 12.5625 z M 8.03125 12.59375 L 9.0625 13.28125 C 9.113453 13.939573 9.1879236 14.574849 9.3125 15.1875 L 8.21875 14.71875 C 8.1058741 14.041341 8.0567382 13.32568 8.03125 12.59375 z M 6.59375 16.34375 C 6.8687218 17.325103 7.2134584 18.200944 7.65625 18.96875 L 7.03125 19.53125 C 6.5360271 18.810238 6.1421932 17.955552 5.8125 17 L 6.59375 16.34375 z M 8.65625 16.53125 L 9.8125 17.03125 C 9.9477642 17.415319 10.117476 17.775519 10.28125 18.125 L 9.46875 17.8125 L 9.0625 17.625 C 8.9200662 17.275927 8.7715033 16.910848 8.65625 16.53125 z"/>
</svg>
